# xmcd CD database file
#
# Track frame offsets:
#	150
#	42442
#	90662
#	110565
#	153610
#	199755
#	232562
#	269465
#	305215
#
# Disc length: 4484 seconds
#
# Revision: 0
# Processed by: cddbd v1.5.1PL0 Copyright (c) Steve Scherf et al.
# Submitted via: CDex 1.51
#
DISCID=76118209
DTITLE=JAZZ Various - BLUE NOTE PRESENTS BIG HITS
DYEAR=1900
DGENRE=Jazz
TTITLE0=COOL STRUTTIN'/SONNY CLARK
TTITLE1=BULE TRAIN/JOHN COLTRANE
TTITLE2=CLEOPATRA'S DREAM/BUD POWELL
TTITLE3=MOANIN'/ART BLAKEY
TTITLE4=THE SIDEWINDER/LEE MORGAN
TTITLE5=SONG FOR MY FATHER/HORECE SILVER
TTITLE6=RECADO BOSSA NOVA/HANK MOBLEY
TTITLE7=MAIDEN VOYAGE/HERBIE HANCOCK
TTITLE8=ALLIGATOR BOGALOO/LOU DONALDSON
EXTD=
EXTT0=
EXTT1=
EXTT2=
EXTT3=
EXTT4=
EXTT5=
EXTT6=
EXTT7=
EXTT8=
PLAYORDER=
